# Blender v2.76 (sub 0) OBJ File: 'framepiston.blend'
# www.blender.org
mtllib framepiston.mtl
o pistonbase
v 0.877174 -0.879100 0.074242
v 0.877174 0.776560 0.074242
v 0.877174 0.776560 0.948741
v 0.877174 -0.879100 0.948741
v -0.910155 -0.879100 0.948741
v -0.910155 0.776560 0.948741
v -0.910155 0.776560 0.074242
v -0.910155 -0.879100 0.074242
vt 0.666667 -0.000000
vt 0.854167 -0.000000
vt 0.854167 1.000000
vt 0.666667 1.000000
vt 0.333333 1.000000
vt 0.333333 -0.000000
vn 1.000000 -0.000000 0.000000
vn -1.000000 -0.000000 0.000000
vn 0.000000 0.000000 -1.000000
vn 0.000000 -0.000000 1.000000
vn 0.000000 -1.000000 0.000000
vn 0.000000 1.000000 0.000000
usemtl Material_pistontexture.png
s 1
f 1/1/1 2/2/1 3/3/1 4/4/1
f 5/4/2 6/1/2 7/2/2 8/3/2
f 8/5/3 7/6/3 2/1/3 1/4/3
f 4/1/4 3/4/4 6/5/4 5/6/4
f 8/1/5 1/2/5 4/3/5 5/4/5
f 2/2/6 7/3/6 6/4/6 3/1/6
o shaft
v -0.267229 -0.334121 0.065116
v -0.267229 0.284736 0.065116
v -0.267229 0.301201 -0.838161
v -0.267229 -0.317657 -0.838161
v 0.278398 -0.317657 -0.838161
v 0.278398 0.301201 -0.838161
v 0.278398 0.284736 0.065116
v 0.278398 -0.334121 0.065116
vt 1.000000 1.000000
vt 0.854167 1.000000
vt 0.854167 0.000000
vt 1.000000 0.000000
vt 0.000225 0.506462
vt 0.342423 0.506462
vt 0.342423 0.808166
vt 0.000225 0.808166
vt 0.342873 0.848659
vt 0.342873 0.506462
vt 0.644577 0.506462
vt 0.644577 0.848659
vn -1.000000 0.000000 0.000000
vn 1.000000 0.000000 0.000000
vn 0.000000 -0.999800 -0.018200
vn 0.000000 0.999800 0.018200
vn 0.000000 0.000000 -1.000000
vn 0.000000 0.000000 1.000000
usemtl Material_pistontexture.png
s 1
f 9/7/7 10/8/7 11/9/7 12/10/7
f 13/7/8 14/8/8 15/9/8 16/10/8
f 12/8/9 13/7/9 16/10/9 9/9/9
f 14/9/10 11/10/10 10/7/10 15/8/10
usemtl Material_NONE
f 12/11/11 11/12/11 14/13/11 13/14/11
f 16/15/12 15/16/12 10/17/12 9/18/12
o pistsontop
v -0.889272 -0.916936 -0.855061
v -0.889272 0.962970 -0.855061
v -0.889272 0.962970 -0.989130
v -0.889272 -0.916936 -0.989130
v 0.944551 0.962970 -0.989130
v 0.944551 -0.916936 -0.989130
v 0.944551 0.962970 -0.855061
v 0.944551 -0.916936 -0.855061
vt -0.000000 0.000000
vt 0.333333 -0.000000
vt 0.333333 0.062500
vt -0.000000 0.062500
vt 0.333333 1.000000
vt 0.000154 0.999846
vt 0.000000 0.937500
vt 0.333333 0.937500
vt 0.000000 1.000000
vt 0.000154 0.000154
vt 0.020833 0.000000
vt 0.020833 1.000000
vt 0.312500 1.000000
vt 0.312500 0.000000
vn -1.000000 -0.000000 0.000000
vn 0.000000 0.000000 -1.000000
vn 1.000000 -0.000000 0.000000
vn 0.000000 -0.000000 1.000000
vn 0.000000 -1.000000 0.000000
vn 0.000000 1.000000 0.000000
usemtl Material_pistontexture.png
s 1
f 17/19/13 18/20/13 19/21/13 20/22/13
f 20/19/14 19/20/14 21/23/14 22/24/14
f 22/25/15 21/26/15 23/23/15 24/27/15
f 24/27/16 23/28/16 18/20/16 17/23/16
f 20/29/17 22/30/17 24/27/17 17/19/17
f 21/31/18 19/32/18 18/20/18 23/23/18
o outterframe
v -1.061381 -1.051872 1.045818
v -1.061381 1.041022 1.045818
v -1.061381 1.041022 -1.047075
v -1.061381 -1.051872 -1.047075
v 1.031513 1.041022 -1.047075
v 1.031513 -1.051872 -1.047075
v 1.031513 1.041022 1.045818
v 1.031513 -1.051872 1.045818
vt -0.000000 0.500000
vt 0.500000 0.500000
vt 0.500000 1.000000
vt -0.000000 1.000000
vn -1.000000 0.000000 0.000000
vn 0.000000 0.000000 -1.000000
vn 1.000000 0.000000 0.000000
vn 0.000000 0.000000 1.000000
vn 0.000000 -1.000000 0.000000
vn 0.000000 1.000000 0.000000
usemtl Material.001
s 1
f 25/33/19 26/34/19 27/35/19 28/36/19
f 28/34/20 27/35/20 29/36/20 30/33/20
f 30/33/21 29/34/21 31/35/21 32/36/21
f 32/34/22 31/35/22 26/36/22 25/33/22
f 28/33/23 30/34/23 32/35/23 25/36/23
f 29/35/24 27/36/24 26/33/24 31/34/24
o innerframe
v 1.000000 -1.000000 -1.000000
v 1.000000 -1.000000 1.000000
v -1.000000 -1.000000 1.000000
v -1.000000 -1.000000 -1.000000
v 1.000000 1.000000 -0.999999
v -1.000000 1.000000 -1.000000
v -1.000000 1.000000 1.000000
v 0.999999 1.000000 1.000001
v -1.009024 1.000000 -1.000000
v -1.009024 1.000000 1.000000
v -1.009024 -1.000000 1.000000
v -1.009024 -1.000000 -1.000000
vt 0.500000 -0.000000
vt 0.500000 0.500000
vt -0.000000 0.500000
vt -0.000000 -0.000000
vt 0.500700 -0.005300
vt 0.000100 0.000100
vt -0.002400 0.501600
vt 0.499900 0.000100
vn 0.000000 -1.000000 -0.000000
vn -0.000000 1.000000 0.000000
vn 1.000000 0.000000 0.000000
vn -0.000000 -0.000000 1.000000
vn 0.000000 0.707100 0.707100
vn -1.000000 -0.000000 0.000000
vn 0.000000 0.000000 -1.000000
vn 0.000000 -0.707100 0.707100
usemtl Material.001
s 1
f 33/37/25 34/38/25 35/39/25 36/40/25
f 37/39/26 38/40/26 39/37/26 40/38/26
f 33/40/27 37/37/27 40/38/27 34/39/27
f 34/40/28 40/37/28 39/38/28 35/39/28
f 39/37/29 38/40/26 41/40/26 42/37/29
f 43/40/30 42/37/30 41/38/30 44/39/30
usemtl Material_NONE
s off
f 38/40/31 36/40/31 44/41/31 41/40/31
s 1
f 35/42/32 39/43/29 42/43/29 43/42/32
f 36/44/25 35/42/32 43/42/32 44/44/25
