# Blender v2.78 (sub 0) OBJ File: 'framefield.blend'
# www.blender.org
o top
v -0.709825 0.985670 0.701309
v -0.709825 1.034355 0.701309
v -0.709825 0.985670 -0.752029
v -0.709825 1.034355 -0.752029
v 0.743513 0.985670 0.701309
v 0.743513 1.034355 0.701309
v 0.743513 0.985670 -0.752029
v 0.743513 1.034355 -0.752029
vt 0.6685 -0.0048
vt 0.6685 0.9950
vt 0.3331 0.9950
vt 0.3331 -0.0048
vt 0.0000 0.0000
vt 0.0000 0.0000
vt 0.0000 0.0000
vt 0.0000 0.0000
vt 0.0000 0.0000
vt 0.0000 0.0000
vt 0.0000 0.0000
vt 0.0000 0.0000
vn 0.0000 1.0000 0.0000
vn -1.0000 0.0000 0.0000
vn 0.0000 0.0000 -1.0000
vn 1.0000 0.0000 0.0000
vn 0.0000 0.0000 1.0000
vn 0.0000 -1.0000 0.0000
f 6/1/1 8/2/1 4/3/1 2/4/1
f 2/5/2 4/6/2 3/7/2 1/8/2
f 4/6/3 8/9/3 7/10/3 3/7/3
f 8/9/4 6/11/4 5/12/4 7/10/4
f 6/11/5 2/5/5 1/8/5 5/12/5
f 1/8/6 3/7/6 7/10/6 5/12/6
o machine
v -0.728922 -0.903896 0.727405
v -0.728922 1.004345 0.727405
v -0.728922 -0.903896 -0.768124
v -0.728922 1.004345 -0.768124
v 0.766607 -0.903896 0.727405
v 0.766607 1.004345 0.727405
v 0.766607 -0.903896 -0.768124
v 0.766607 1.004345 -0.768124
vt 0.3356 0.9999
vt 0.0001 0.9999
vt 0.0001 0.0001
vt 0.3356 0.0001
vt 0.3356 0.9937
vt 0.0001 0.9999
vt 0.0001 0.0001
vt 0.3356 -0.0061
vt 0.3315 0.9999
vt 0.0001 0.9999
vt 0.0001 0.0001
vt 0.3315 0.0001
vt 0.3315 0.9937
vt 0.0001 0.9999
vt 0.0001 0.0001
vt 0.3315 -0.0061
vt 0.6677 0.9937
vt 0.6677 -0.0061
vt 0.9999 0.0001
vt 0.9999 0.9999
vt 0.9999 0.0001
vt 0.9999 0.9999
vt 0.0001 0.0001
vn -1.0000 0.0000 0.0000
vn 0.0000 0.0000 -1.0000
vn 1.0000 0.0000 0.0000
vn 0.0000 0.0000 1.0000
vn 0.0000 -1.0000 0.0000
vn 0.0000 1.0000 0.0000
f 10/13/7 12/14/7 11/15/7 9/16/7
f 12/17/8 16/18/8 15/19/8 11/20/8
f 16/21/9 14/22/9 13/23/9 15/24/9
f 14/25/10 10/26/10 9/27/10 13/28/10
f 9/29/11 11/30/11 15/31/11 13/32/11
f 14/33/12 16/34/12 12/14/12 10/35/12
o outterframe
v -0.973089 -0.982379 0.970086
v -0.973089 1.073089 0.970086
v -0.973089 -0.982379 -0.984027
v -0.973089 1.073089 -0.984027
v 0.981025 -0.982379 0.970086
v 0.981025 1.073089 0.970086
v 0.981025 -0.982379 -0.984027
v 0.981025 1.073089 -0.984027
vt -0.0030 0.5024
vt 0.4976 0.5024
vt 0.5007 0.9999
vt 0.0001 0.9999
vt -0.0024 0.5021
vt 0.4954 0.5021
vt 0.4979 0.9999
vt 0.0001 0.9999
vt 0.5053 0.9999
vt 0.0001 0.9999
vt 0.0001 0.5021
vt 0.5053 0.5021
vt 0.5028 1.0024
vt 0.0001 0.9999
vt 0.0001 0.4996
vt 0.5028 0.5021
vt -0.0030 0.4962
vt 0.5038 0.4962
vt 0.5069 0.9999
vt 0.4999 0.5027
vt 0.4999 0.9999
vt 0.0001 0.9999
vt 0.0001 0.5027
vn -1.0000 0.0000 0.0000
vn 0.0000 0.0000 -1.0000
vn 1.0000 0.0000 0.0000
vn 0.0000 0.0000 1.0000
vn 0.0000 -1.0000 0.0000
vn 0.0000 1.0000 0.0000
f 18/36/13 20/37/13 19/38/13 17/39/13
f 20/40/14 24/41/14 23/42/14 19/43/14
f 24/44/15 22/45/15 21/46/15 23/47/15
f 22/48/16 18/49/16 17/50/16 21/51/16
f 17/39/17 19/52/17 23/53/17 21/54/17
f 22/55/18 24/56/18 20/57/18 18/58/18
o innerframe
v 0.855236 -0.990400 -0.883322
v 0.855236 -0.990400 0.827149
v -0.855236 -0.990400 0.827149
v -0.855235 -0.990400 -0.883322
v 0.855236 1.016866 -0.883321
v 0.855235 1.016866 0.827150
v -0.855236 1.016866 0.827149
v -0.855235 1.016866 -0.883322
vt 0.5100 0.4914
vt 0.0001 0.4945
vt 0.0001 0.0001
vt 0.5100 -0.0030
vt 0.5038 0.0032
vt 0.5038 0.4976
vt 0.0001 0.4945
vt 0.0001 0.0001
vt 0.5131 0.0032
vt 0.5069 0.4976
vt -0.0061 0.4945
vt -0.0030 0.5038
vt 0.0001 0.0001
vt 0.5007 -0.0030
vt 0.4976 0.5007
vt 0.5038 0.0001
vt 0.5038 0.4976
vt 0.0001 0.4976
vt 0.0001 0.0001
vt 0.9999 0.9999
vt 0.0001 0.9999
vt 0.9999 0.0001
vn 0.0000 -1.0000 -0.0000
vn 1.0000 -0.0000 0.0000
vn -0.0000 -0.0000 1.0000
vn -1.0000 -0.0000 -0.0000
vn 0.0000 0.0000 -1.0000
vn 0.0000 1.0000 0.0000
f 25/59/19 26/60/19 27/61/19 28/62/19
f 25/63/20 29/64/20 30/65/20 26/66/20
f 26/67/21 30/68/21 31/69/21 27/61/21
f 27/70/22 31/71/22 32/72/22 28/73/22
f 29/74/23 25/75/23 28/76/23 32/77/23
f 29/78/24 32/79/24 31/71/24 30/80/24
