# Blender v2.76 (sub 0) OBJ File: 'framepistonext.blend'
# www.blender.org
mtllib framepistonext.mtl
o shaft
v -0.267229 -0.334121 1.215299
v -0.267229 0.284736 1.215299
v -0.267229 0.301201 -0.838161
v -0.267229 -0.317657 -0.838161
v 0.278398 -0.317657 -0.838161
v 0.278398 0.301201 -0.838161
v 0.278398 0.284736 1.215299
v 0.278398 -0.334121 1.215299
vt 1.000000 1.000000
vt 0.854167 1.000000
vt 0.854167 0.000000
vt 1.000000 0.000000
vt 0.000225 0.506462
vt 0.342423 0.506462
vt 0.342423 0.808166
vt 0.000225 0.808166
vt 0.342873 0.848659
vt 0.342873 0.506462
vt 0.644577 0.506462
vt 0.644577 0.848659
vn -1.000000 0.000000 0.000000
vn 1.000000 0.000000 0.000000
vn 0.000000 -1.000000 -0.008000
vn 0.000000 1.000000 0.008000
vn 0.000000 0.000000 -1.000000
vn 0.000000 0.000000 1.000000
f 1/1/1 2/2/1 3/3/1 4/4/1
f 5/1/2 6/2/2 7/3/2 8/4/2
f 4/2/3 5/1/3 8/4/3 1/3/3
f 6/3/4 3/4/4 2/1/4 7/2/4
f 4/5/5 3/6/5 6/7/5 5/8/5
f 8/9/6 7/10/6 2/11/6 1/12/6
o face
v -0.877726 -0.905100 -0.855905
v -0.877726 0.951134 -0.855905
v -0.877726 0.951134 -0.988286
v -0.877726 -0.905100 -0.988286
v 0.933005 0.951134 -0.988286
v 0.933005 -0.905100 -0.988286
v 0.933005 0.951134 -0.855905
v 0.933005 -0.905100 -0.855905
vt -0.000000 0.000000
vt 0.333333 -0.000000
vt 0.333333 0.062500
vt -0.000000 0.062500
vt 0.333333 1.000000
vt 0.000154 0.999846
vt 0.000000 0.937500
vt 0.333333 0.937500
vt 0.000000 1.000000
vt 0.000154 0.000154
vt 0.020833 0.000000
vt 0.020833 1.000000
vt 0.312500 1.000000
vt 0.312500 0.000000
vn -1.000000 -0.000000 0.000000
vn 0.000000 0.000000 -1.000000
vn 1.000000 0.000000 0.000000
vn 0.000000 -0.000000 1.000000
vn 0.000000 -1.000000 0.000000
vn 0.000000 1.000000 0.000000
f 9/13/7 10/14/7 11/15/7 12/16/7
f 12/13/8 11/14/8 13/17/8 14/18/8
f 14/19/9 13/20/9 15/17/9 16/21/9
f 16/21/10 15/22/10 10/14/10 9/17/10
f 12/23/11 14/24/11 16/21/11 9/13/11
f 13/25/12 11/26/12 10/14/12 15/17/12
o outterframe
v -1.019840 -1.010703 1.004886
v -1.019840 1.000278 1.004886
v -1.019840 1.000278 -1.006094
v -1.019840 -1.010703 -1.006094
v 0.991141 1.000278 -1.006094
v 0.991141 -1.010703 -1.006094
v 0.991141 1.000278 1.004886
v 0.991141 -1.010703 1.004886
vt -0.000000 0.500000
vt 0.500000 0.500000
vt 0.500000 1.000000
vt -0.000000 1.000000
vn -1.000000 0.000000 0.000000
vn 0.000000 0.000000 -1.000000
vn 1.000000 0.000000 0.000000
vn 0.000000 0.000000 1.000000
vn 0.000000 -1.000000 0.000000
vn 0.000000 1.000000 0.000000
f 17/27/13 18/28/13 19/29/13 20/30/13
f 20/28/14 19/29/14 21/30/14 22/27/14
f 22/27/15 21/28/15 23/29/15 24/30/15
f 24/28/16 23/29/16 18/30/16 17/27/16
f 20/27/17 22/28/17 24/29/17 17/30/17
f 21/29/18 19/30/18 18/27/18 23/28/18
o innerframe
v 0.947691 -0.947691 -0.947691
v 0.947691 -0.947691 0.947691
v -0.947691 -0.947691 0.947691
v -0.947691 -0.947691 -0.947691
v 0.947691 0.947691 -0.947690
v -0.947691 0.947691 -0.947691
v -0.947691 0.947691 0.947691
v 0.947690 0.947691 0.947692
v -0.956243 0.947691 -0.947691
v -0.956243 0.947691 0.947691
v -0.956243 -0.947691 0.947691
v -0.956243 -0.947691 -0.947691
vt 0.500000 -0.000000
vt 0.500000 0.500000
vt -0.000000 0.500000
vt -0.000000 -0.000000
vt 0.500700 -0.005300
vt 0.000100 0.000100
vt -0.002400 0.501600
vt 0.499900 0.000100
vn 0.000000 -1.000000 -0.000000
vn -0.000000 1.000000 0.000000
vn 1.000000 0.000000 0.000000
vn -0.000000 -0.000000 1.000000
vn 0.000000 0.707100 0.707100
vn -1.000000 0.000000 0.000000
vn 0.000000 0.000000 -1.000000
vn 0.000000 -0.707100 0.707100
f 25/31/19 26/32/19 27/33/19 28/34/19
f 29/33/20 30/34/20 31/31/20 32/32/20
f 25/34/21 29/31/21 32/32/21 26/33/21
f 26/34/22 32/31/22 31/32/22 27/33/22
f 31/31/23 30/34/20 33/34/20 34/31/23
f 35/34/24 34/31/24 33/32/24 36/33/24
f 30/34/25 28/34/25 36/35/25 33/34/25
f 27/36/26 31/37/23 34/37/23 35/36/26
f 28/38/19 27/36/26 35/36/26 36/38/19
